<?xml version="1.0" encoding="UTF-8" standalone="no"?><svg xmlns="http://www.w3.org/2000/svg" xmlns:xlink="http://www.w3.org/1999/xlink"><symbol id="smal_4k144" viewBox="0 0 120 120" fill="none" xmlns="http://www.w3.org/2000/svg"><g id="Pictogram4k144"></g><g id="Path"></g><path fill-rule="evenodd" clip-rule="evenodd" d="M26.6667 38.3335C27.5871 38.3335 28.3333 39.0797 28.3333 40.0002V80.0002C28.3333 80.9206 27.5871 81.6668 26.6667 81.6668C25.7462 81.6668 25 80.9206 25 80.0002V40.0002C25 39.0797 25.7462 38.3335 26.6667 38.3335Z" fill="white"></path><path fill-rule="evenodd" clip-rule="evenodd" d="M93.3337 38.3335C94.2541 38.3335 95.0003 39.0797 95.0003 40.0002V80.0002C95.0003 80.9206 94.2541 81.6668 93.3337 81.6668C92.4132 81.6668 91.667 80.9206 91.667 80.0002V40.0002C91.667 39.0797 92.4132 38.3335 93.3337 38.3335Z" fill="white"></path><path fill-rule="evenodd" clip-rule="evenodd" d="M13.3335 30.0002C13.3335 29.0797 14.0797 28.3335 15.0002 28.3335H105C105.921 28.3335 106.667 29.0797 106.667 30.0002C106.667 30.9206 105.921 31.6668 105 31.6668H15.0002C14.0797 31.6668 13.3335 30.9206 13.3335 30.0002Z" fill="white"></path><path fill-rule="evenodd" clip-rule="evenodd" d="M13.3335 35.0002C13.3335 34.0797 14.0797 33.3335 15.0002 33.3335H18.2144C19.1349 33.3335 19.8811 34.0797 19.8811 35.0002C19.8811 35.9206 19.1349 36.6668 18.2144 36.6668H15.0002C14.0797 36.6668 13.3335 35.9206 13.3335 35.0002ZM22.9764 35.0002C22.9764 34.0797 23.7225 33.3335 24.643 33.3335H31.0716C31.9921 33.3335 32.7383 34.0797 32.7383 35.0002C32.7383 35.9206 31.9921 36.6668 31.0716 36.6668H24.643C23.7225 36.6668 22.9764 35.9206 22.9764 35.0002ZM35.8335 35.0002C35.8335 34.0797 36.5797 33.3335 37.5002 33.3335H43.9287C44.8492 33.3335 45.5954 34.0797 45.5954 35.0002C45.5954 35.9206 44.8492 36.6668 43.9287 36.6668H37.5002C36.5797 36.6668 35.8335 35.9206 35.8335 35.0002ZM48.6906 35.0002C48.6906 34.0797 49.4368 33.3335 50.3573 33.3335H56.7859C57.7064 33.3335 58.4525 34.0797 58.4525 35.0002C58.4525 35.9206 57.7064 36.6668 56.7859 36.6668H50.3573C49.4368 36.6668 48.6906 35.9206 48.6906 35.0002ZM61.5478 35.0002C61.5478 34.0797 62.294 33.3335 63.2145 33.3335H69.643C70.5635 33.3335 71.3097 34.0797 71.3097 35.0002C71.3097 35.9206 70.5635 36.6668 69.643 36.6668H63.2145C62.294 36.6668 61.5478 35.9206 61.5478 35.0002ZM74.4049 35.0002C74.4049 34.0797 75.1511 33.3335 76.0716 33.3335H82.5002C83.4206 33.3335 84.1668 34.0797 84.1668 35.0002C84.1668 35.9206 83.4206 36.6668 82.5002 36.6668H76.0716C75.1511 36.6668 74.4049 35.9206 74.4049 35.0002ZM87.2621 35.0002C87.2621 34.0797 88.0083 33.3335 88.9287 33.3335H95.3573C96.2778 33.3335 97.024 34.0797 97.024 35.0002C97.024 35.9206 96.2778 36.6668 95.3573 36.6668H88.9287C88.0083 36.6668 87.2621 35.9206 87.2621 35.0002ZM100.119 35.0002C100.119 34.0797 100.865 33.3335 101.786 33.3335H105C105.921 33.3335 106.667 34.0797 106.667 35.0002C106.667 35.9206 105.921 36.6668 105 36.6668H101.786C100.865 36.6668 100.119 35.9206 100.119 35.0002Z" fill="white"></path><path fill-rule="evenodd" clip-rule="evenodd" d="M13.3335 40.0002C13.3335 39.0797 14.0797 38.3335 15.0002 38.3335H105C105.921 38.3335 106.667 39.0797 106.667 40.0002C106.667 40.9206 105.921 41.6668 105 41.6668H15.0002C14.0797 41.6668 13.3335 40.9206 13.3335 40.0002Z" fill="white"></path><path fill-rule="evenodd" clip-rule="evenodd" d="M13.3335 80.0002C13.3335 79.0797 14.0797 78.3335 15.0002 78.3335H105C105.921 78.3335 106.667 79.0797 106.667 80.0002C106.667 80.9206 105.921 81.6668 105 81.6668H15.0002C14.0797 81.6668 13.3335 80.9206 13.3335 80.0002Z" fill="white"></path><path fill-rule="evenodd" clip-rule="evenodd" d="M13.3335 85.0002C13.3335 84.0797 14.0797 83.3335 15.0002 83.3335H18.2144C19.1349 83.3335 19.8811 84.0797 19.8811 85.0002C19.8811 85.9206 19.1349 86.6668 18.2144 86.6668H15.0002C14.0797 86.6668 13.3335 85.9206 13.3335 85.0002ZM22.9764 85.0002C22.9764 84.0797 23.7225 83.3335 24.643 83.3335H31.0716C31.9921 83.3335 32.7383 84.0797 32.7383 85.0002C32.7383 85.9206 31.9921 86.6668 31.0716 86.6668H24.643C23.7225 86.6668 22.9764 85.9206 22.9764 85.0002ZM35.8335 85.0002C35.8335 84.0797 36.5797 83.3335 37.5002 83.3335H43.9287C44.8492 83.3335 45.5954 84.0797 45.5954 85.0002C45.5954 85.9206 44.8492 86.6668 43.9287 86.6668H37.5002C36.5797 86.6668 35.8335 85.9206 35.8335 85.0002ZM48.6906 85.0002C48.6906 84.0797 49.4368 83.3335 50.3573 83.3335H56.7859C57.7064 83.3335 58.4525 84.0797 58.4525 85.0002C58.4525 85.9206 57.7064 86.6668 56.7859 86.6668H50.3573C49.4368 86.6668 48.6906 85.9206 48.6906 85.0002ZM61.5478 85.0002C61.5478 84.0797 62.294 83.3335 63.2145 83.3335H69.643C70.5635 83.3335 71.3097 84.0797 71.3097 85.0002C71.3097 85.9206 70.5635 86.6668 69.643 86.6668H63.2145C62.294 86.6668 61.5478 85.9206 61.5478 85.0002ZM74.4049 85.0002C74.4049 84.0797 75.1511 83.3335 76.0716 83.3335H82.5002C83.4206 83.3335 84.1668 84.0797 84.1668 85.0002C84.1668 85.9206 83.4206 86.6668 82.5002 86.6668H76.0716C75.1511 86.6668 74.4049 85.9206 74.4049 85.0002ZM87.2621 85.0002C87.2621 84.0797 88.0083 83.3335 88.9287 83.3335H95.3573C96.2778 83.3335 97.024 84.0797 97.024 85.0002C97.024 85.9206 96.2778 86.6668 95.3573 86.6668H88.9287C88.0083 86.6668 87.2621 85.9206 87.2621 85.0002ZM100.119 85.0002C100.119 84.0797 100.865 83.3335 101.786 83.3335H105C105.921 83.3335 106.667 84.0797 106.667 85.0002C106.667 85.9206 105.921 86.6668 105 86.6668H101.786C100.865 86.6668 100.119 85.9206 100.119 85.0002Z" fill="white"></path><path fill-rule="evenodd" clip-rule="evenodd" d="M13.3335 90.0002C13.3335 89.0797 14.0797 88.3335 15.0002 88.3335H105C105.921 88.3335 106.667 89.0797 106.667 90.0002C106.667 90.9206 105.921 91.6668 105 91.6668H15.0002C14.0797 91.6668 13.3335 90.9206 13.3335 90.0002Z" fill="white"></path><path fill-rule="evenodd" clip-rule="evenodd" d="M51.667 52.9439C51.667 50.353 54.4936 48.7526 56.7153 50.0856L68.4759 57.142C70.6337 58.4367 70.6337 61.5639 68.4759 62.8586L56.7153 69.915C54.4936 71.248 51.667 69.6476 51.667 67.0566V52.9439ZM55.0003 52.944L55.0003 52.9439V67.0566L66.7609 60.0003L55.0003 52.944Z" fill="white"></path></symbol><symbol id="smal_plugnplay" data-testid="plug-and-play-large-icon" viewBox="0 0 120 120" fill="none" xmlns="http://www.w3.org/2000/svg"><path d="M46.6667 18.3334C46.6667 15.572 48.9052 13.3334 51.6667 13.3334H68.3333C71.0948 13.3334 73.3333 15.572 73.3333 18.3334V25C73.3333 25.9205 72.5871 26.6667 71.6667 26.6667C70.7462 26.6667 70 25.9205 70 25V18.3334C70 17.4129 69.2538 16.6667 68.3333 16.6667H51.6667C50.7462 16.6667 50 17.4129 50 18.3334V25C50 25.9205 49.2538 26.6667 48.3333 26.6667C47.4129 26.6667 46.6667 25.9205 46.6667 25V18.3334Z" fill="white"></path><path fill-rule="evenodd" clip-rule="evenodd" d="M55.1214 63.75L68.3333 56.3134L68.3328 52.4348L61.9402 48.8446L61.904 48.814L55.1129 45L51.6667 46.9592V61.8098L55.1214 63.75ZM55.1229 48.8287L59.9951 51.565L60.0313 51.5956L64.9808 54.3754L55.1195 59.926L55 59.8588V48.8985L55.1229 48.8287Z" fill="white"></path><path fill-rule="evenodd" clip-rule="evenodd" d="M40 35C40 32.2386 42.2386 30 45 30H75C77.7614 30 80 32.2386 80 35V73.3334C80 77.9357 76.269 81.6667 71.6667 81.6667H48.3333C43.731 81.6667 40 77.9358 40 73.3334V35ZM45 33.3334C44.0795 33.3334 43.3333 34.0796 43.3333 35V73.3334C43.3333 76.0948 45.5719 78.3334 48.3333 78.3334H71.6667C74.4281 78.3334 76.6667 76.0948 76.6667 73.3334V35C76.6667 34.0796 75.9205 33.3334 75 33.3334H45Z" fill="white"></path><path d="M61.6667 101.667C64.4281 101.667 66.6667 99.4281 66.6667 96.6667V86.6667C66.6667 85.7462 65.9205 85 65 85C64.0795 85 63.3333 85.7462 63.3333 86.6667L63.3333 96.6667C63.3333 97.5872 62.5871 98.3334 61.6667 98.3334H58.3333C57.4129 98.3334 56.6667 97.5872 56.6667 96.6667V86.6667C56.6667 85.7462 55.9205 85 55 85C54.0795 85 53.3333 85.7462 53.3333 86.6667L53.3333 96.6667C53.3333 99.4281 55.5719 101.667 58.3333 101.667V108.333C58.3333 109.254 59.0795 110 60 110C60.9205 110 61.6667 109.254 61.6667 108.333V101.667Z" fill="white"></path></symbol><symbol id="smal_hdr10" viewBox="0 0 120 120" fill="none" xmlns="http://www.w3.org/2000/svg"><path fill-rule="evenodd" clip-rule="evenodd" d="M18.3335 21.6665C15.5721 21.6665 13.3335 23.9051 13.3335 26.6665V79.9998C13.3335 82.7613 15.5721 84.9998 18.3335 84.9998H101.667C104.428 84.9998 106.667 82.7613 106.667 79.9998V26.6665C106.667 23.9051 104.428 21.6665 101.667 21.6665H18.3335ZM16.6668 26.6665C16.6668 25.746 17.413 24.9998 18.3335 24.9998H101.667C102.587 24.9998 103.333 25.746 103.333 26.6665V79.9998C103.333 80.9203 102.587 81.6665 101.667 81.6665H18.3335C17.413 81.6665 16.6668 80.9203 16.6668 79.9998V26.6665Z" fill="white"></path><path d="M61.6668 89.9998C61.6668 89.0794 60.9206 88.3332 60.0002 88.3332C59.0797 88.3332 58.3335 89.0794 58.3335 89.9998V98.3332H40.0002C39.0797 98.3332 38.3335 99.0794 38.3335 99.9998C38.3335 100.92 39.0797 101.667 40.0002 101.667H80.0002C80.9206 101.667 81.6668 100.92 81.6668 99.9998C81.6668 99.0794 80.9206 98.3332 80.0002 98.3332H61.6668V89.9998Z" fill="white"></path><g opacity="0.3"><mask id="mask0_1719_158991" style="mask-type: alpha;" maskUnits="userSpaceOnUse" x="16" y="23" width="45" height="61"><path d="M16.667 23.333H60.0003V83.333H16.667V23.333Z" fill="#D9D9D9"></path></mask><g mask="url(#mask0_1719_158991)"><path fill-rule="evenodd" clip-rule="evenodd" d="M80.5642 51.1436C81.9021 49.1692 84.8202 49.1978 86.1192 51.198L104.726 79.8501C106.166 82.0677 104.575 84.9989 101.931 84.9989H27.7857C25.2657 84.9989 23.6571 82.3104 24.8484 80.0898L36.2276 58.8785C37.4653 56.5714 40.7577 56.5263 42.0581 58.7988L47.0054 67.4443L55.5958 58.7707C56.8823 57.4717 58.9752 57.4515 60.2866 58.7253L69.4167 67.5938L80.5642 51.1436ZM67.5177 70.3962L66.0442 68.9649L63.169 67.7986L62.4952 68.6359C61.1144 70.3517 58.4782 70.2777 57.1957 68.4878L55.3379 68.8125C54.2449 69.0035 53.1285 68.6381 52.3599 67.8378L51.8416 67.2982L48.7234 70.4466L55.1432 81.6656H59.8811L67.5177 70.3962ZM63.9077 81.6656H101.931L92.6726 67.4096C91.3425 68.4359 89.3579 68.338 88.1517 66.989L86.5204 65.1645L85.8693 66.3782C84.4418 69.0391 80.4947 68.5826 79.7124 65.666L79.6381 65.3889L78.8194 66.1519C77.7321 67.1652 76.1054 67.3363 74.8311 66.5714L74.3371 66.2749L63.9077 81.6656ZM76.2099 63.5113L76.5467 63.7135L77.3654 62.9504C79.2043 61.2365 82.2063 62.0973 82.8576 64.5253L82.9319 64.8024L83.5831 63.5887C84.6767 61.5502 87.4634 61.2182 89.0053 62.9427L90.6366 64.7672L90.7925 64.5145L83.3236 53.0135L76.2099 63.5113ZM51.3027 81.6656L44.69 70.1097L43.2078 71.3656C41.9187 72.4578 40.0163 72.4128 38.7803 71.2608L36.9518 69.5567L33.2805 71.4231L27.7857 81.6656H51.3027ZM35.9948 66.3635C37.1146 66.0276 38.348 66.3013 39.2245 67.1182L41.053 68.8224L43.0063 67.1673L39.1649 60.4543L35.9948 66.3635ZM54.188 64.9291L54.764 65.5289L56.6246 65.2038C57.8834 64.9838 59.1569 65.5038 59.9019 66.5416L61.5021 64.553L57.9641 61.1164L54.188 64.9291Z" fill="white"></path><path fill-rule="evenodd" clip-rule="evenodd" d="M31.4813 43.2466C32.815 42.8893 33.6065 41.5184 33.2491 40.1848C32.8917 38.8511 31.5209 38.0597 30.1872 38.417C28.8536 38.7744 28.0621 40.1452 28.4195 41.4789C28.7768 42.8125 30.1477 43.604 31.4813 43.2466ZM32.3441 46.4664C35.4559 45.6326 37.3027 42.4339 36.4689 39.322C35.635 36.2102 32.4364 34.3634 29.3245 35.1973C26.2126 36.0311 24.3659 39.2297 25.1997 42.3416C26.0335 45.4535 29.2322 47.3002 32.3441 46.4664Z" fill="white"></path><path fill-rule="evenodd" clip-rule="evenodd" d="M20.2053 34.6953C20.6655 33.8981 21.6848 33.625 22.482 34.0852L24.5232 35.2637C25.3204 35.724 25.5935 36.7433 25.1333 37.5405C24.673 38.3376 23.6537 38.6107 22.8566 38.1505L20.8153 36.972C20.0182 36.5117 19.7451 35.4924 20.2053 34.6953Z" fill="white"></path><path fill-rule="evenodd" clip-rule="evenodd" d="M36.5354 44.1235C36.9956 43.3263 38.0149 43.0532 38.8121 43.5135L40.8533 44.692C41.6505 45.1522 41.9236 46.1715 41.4634 46.9687C41.0031 47.7658 39.9838 48.039 39.1866 47.5787L37.1454 46.4002C36.3483 45.94 36.0751 44.9207 36.5354 44.1235Z" fill="white"></path><path fill-rule="evenodd" clip-rule="evenodd" d="M18.9793 44.0083C18.7411 43.1192 19.2687 42.2053 20.1578 41.9671L22.4346 41.3571C23.3237 41.1188 24.2376 41.6465 24.4758 42.5356C24.714 43.4247 24.1864 44.3386 23.2973 44.5768L21.0206 45.1868C20.1315 45.4251 19.2176 44.8974 18.9793 44.0083Z" fill="white"></path><path fill-rule="evenodd" clip-rule="evenodd" d="M37.1932 39.128C36.955 38.2389 37.4826 37.325 38.3717 37.0867L40.6484 36.4767C41.5375 36.2384 42.4514 36.7661 42.6897 37.6552C42.9279 38.5443 42.4003 39.4582 41.5112 39.6964L39.2344 40.3065C38.3453 40.5447 37.4314 40.0171 37.1932 39.128Z" fill="white"></path><path fill-rule="evenodd" clip-rule="evenodd" d="M24.6977 51.4612C23.9006 51.001 23.6274 49.9817 24.0877 49.1845L25.2662 47.1433C25.7264 46.3461 26.7457 46.073 27.5429 46.5332C28.34 46.9935 28.6132 48.0128 28.1529 48.8099L26.9744 50.8512C26.5142 51.6483 25.4949 51.9215 24.6977 51.4612Z" fill="white"></path><path fill-rule="evenodd" clip-rule="evenodd" d="M34.1259 35.1311C33.3288 34.6709 33.0557 33.6516 33.5159 32.8544L34.6944 30.8132C35.1546 30.016 36.174 29.7429 36.9711 30.2031C37.7683 30.6634 38.0414 31.6827 37.5812 32.4799L36.4026 34.5211C35.9424 35.3183 34.9231 35.5914 34.1259 35.1311Z" fill="white"></path><path fill-rule="evenodd" clip-rule="evenodd" d="M34.0108 52.6867C33.1217 52.9249 32.2078 52.3973 31.9695 51.5082L31.3595 49.2315C31.1213 48.3424 31.6489 47.4285 32.538 47.1902C33.4271 46.952 34.341 47.4796 34.5792 48.3687L35.1893 50.6454C35.4275 51.5346 34.8999 52.4484 34.0108 52.6867Z" fill="white"></path><path fill-rule="evenodd" clip-rule="evenodd" d="M29.1304 34.4728C28.2413 34.7111 27.3274 34.1834 27.0892 33.2943L26.4791 31.0176C26.2409 30.1285 26.7685 29.2146 27.6576 28.9764C28.5467 28.7381 29.4606 29.2658 29.6989 30.1549L30.3089 32.4316C30.5472 33.3207 30.0195 34.2346 29.1304 34.4728Z" fill="white"></path></g></g><mask id="mask1_1719_158991" style="mask-type: alpha;" maskUnits="userSpaceOnUse" x="60" y="21" width="44" height="64"><path d="M103.333 21.6665H60.0002V84.9998H103.333V21.6665Z" fill="#D9D9D9"></path></mask><g mask="url(#mask1_1719_158991)"><path fill-rule="evenodd" clip-rule="evenodd" d="M80.5637 51.1441C81.9016 49.1697 84.8197 49.1983 86.1187 51.1985L104.726 79.8506C106.166 82.0682 104.574 84.9994 101.93 84.9994H27.7852C25.2653 84.9994 23.6566 82.3109 24.8479 80.0903L36.2271 58.879C37.4648 56.5719 40.7572 56.5268 42.0576 58.7993L47.0049 67.4448L55.5953 58.7712C56.8818 57.4722 58.9747 57.4519 60.2861 58.7258L69.4163 67.5943L80.5637 51.1441ZM67.5172 70.3967L66.0437 68.9654L63.1685 67.7991L62.4947 68.6363C61.1139 70.3522 58.4777 70.2782 57.1952 68.4883L55.3374 68.813C54.2444 69.004 53.128 68.6386 52.3594 67.8383L51.8411 67.2987L48.7229 70.4471L55.1428 81.666H59.8806L67.5172 70.3967ZM63.9072 81.666H101.93L92.6721 67.4101C91.342 68.4364 89.3574 68.3385 88.1512 66.9895L86.5199 65.165L85.8688 66.3787C84.4413 69.0396 80.4942 68.583 79.7119 65.6665L79.6376 65.3894L78.8189 66.1524C77.7317 67.1657 76.1049 67.3368 74.8306 66.5719L74.3366 66.2754L63.9072 81.666ZM76.2094 63.5118L76.5462 63.714L77.3649 62.9509C79.2038 61.237 82.2059 62.0978 82.8571 64.5258L82.9315 64.8029L83.5826 63.5892C84.6762 61.5507 87.4629 61.2187 89.0048 62.9432L90.6361 64.7677L90.792 64.515L83.3231 53.014L76.2094 63.5118ZM51.3022 81.666L44.6896 70.1102L43.2073 71.3661C41.9182 72.4583 40.0158 72.4133 38.7798 71.2613L36.9513 69.5571L33.28 71.4235L27.7852 81.666H51.3022ZM35.9943 66.364C37.1141 66.0281 38.3475 66.3018 39.224 67.1187L41.0525 68.8229L43.0058 67.1678L39.1644 60.4548L35.9943 66.364ZM54.1875 64.9296L54.7636 65.5294L56.6241 65.2042C57.8829 64.9843 59.1564 65.5043 59.9014 66.5421L61.5016 64.5535L57.9636 61.1169L54.1875 64.9296Z" fill="white"></path></g><path fill-rule="evenodd" clip-rule="evenodd" d="M60.0002 21.6665C60.9206 21.6665 61.6668 22.4127 61.6668 23.3332V25.0475C61.6668 25.9679 60.9206 26.7141 60.0002 26.7141C59.0797 26.7141 58.3335 25.9679 58.3335 25.0475V23.3332C58.3335 22.4127 59.0797 21.6665 60.0002 21.6665ZM60.0002 28.5236C60.9206 28.5236 61.6668 29.2698 61.6668 30.1903V33.6189C61.6668 34.5394 60.9206 35.2856 60.0002 35.2856C59.0797 35.2856 58.3335 34.5394 58.3335 33.6189V30.1903C58.3335 29.2698 59.0797 28.5236 60.0002 28.5236ZM60.0002 37.0951C60.9206 37.0951 61.6668 37.8413 61.6668 38.7617V42.1903C61.6668 43.1108 60.9206 43.857 60.0002 43.857C59.0797 43.857 58.3335 43.1108 58.3335 42.1903V38.7617C58.3335 37.8413 59.0797 37.0951 60.0002 37.0951ZM60.0002 45.6665C60.9206 45.6665 61.6668 46.4127 61.6668 47.3332V50.7617C61.6668 51.6822 60.9206 52.4284 60.0002 52.4284C59.0797 52.4284 58.3335 51.6822 58.3335 50.7617V47.3332C58.3335 46.4127 59.0797 45.6665 60.0002 45.6665ZM60.0002 54.2379C60.9206 54.2379 61.6668 54.9841 61.6668 55.9046V59.3332C61.6668 60.2536 60.9206 60.9998 60.0002 60.9998C59.0797 60.9998 58.3335 60.2536 58.3335 59.3332V55.9046C58.3335 54.9841 59.0797 54.2379 60.0002 54.2379ZM60.0002 62.8094C60.9206 62.8094 61.6668 63.5556 61.6668 64.476V67.9046C61.6668 68.8251 60.9206 69.5713 60.0002 69.5713C59.0797 69.5713 58.3335 68.8251 58.3335 67.9046V64.476C58.3335 63.5556 59.0797 62.8094 60.0002 62.8094ZM60.0002 71.3808C60.9206 71.3808 61.6668 72.127 61.6668 73.0475V76.476C61.6668 77.3965 60.9206 78.1427 60.0002 78.1427C59.0797 78.1427 58.3335 77.3965 58.3335 76.476V73.0475C58.3335 72.127 59.0797 71.3808 60.0002 71.3808ZM60.0002 79.9522C60.9206 79.9522 61.6668 80.6984 61.6668 81.6189V83.3332C61.6668 84.2536 60.9206 84.9998 60.0002 84.9998C59.0797 84.9998 58.3335 84.2536 58.3335 83.3332V81.6189C58.3335 80.6984 59.0797 79.9522 60.0002 79.9522Z" fill="white"></path></symbol><symbol id="smal_softwarecompatible" viewBox="0 0 120 120" fill="none" xmlns="http://www.w3.org/2000/svg"><path fill-rule="evenodd" clip-rule="evenodd" d="M18.332 25C15.5706 25 13.332 27.2386 13.332 30V76.6667C13.332 79.4281 15.5706 81.6667 18.332 81.6667H101.665C104.427 81.6667 106.665 79.4281 106.665 76.6667V30C106.665 27.2386 104.427 25 101.665 25H18.332ZM16.6654 30C16.6654 29.0795 17.4116 28.3333 18.332 28.3333H101.665C102.586 28.3333 103.332 29.0795 103.332 30V76.6667C103.332 77.5871 102.586 78.3333 101.665 78.3333H18.332C17.4116 78.3333 16.6654 77.5871 16.6654 76.6667V30Z" fill="white"></path><path d="M61.6654 86.6667C61.6654 85.7462 60.9192 85 59.9987 85C59.0782 85 58.332 85.7462 58.332 86.6667V98.3333H39.9987C39.0782 98.3333 38.332 99.0795 38.332 100C38.332 100.92 39.0782 101.667 39.9987 101.667H79.9987C80.9192 101.667 81.6654 100.92 81.6654 100C81.6654 99.0795 80.9192 98.3333 79.9987 98.3333H61.6654V86.6667Z" fill="white"></path><path fill-rule="evenodd" clip-rule="evenodd" d="M91.6654 35H26.6654V71.6666H91.6654V35ZM26.6654 31.6666C24.8244 31.6666 23.332 33.159 23.332 35V71.6666C23.332 73.5076 24.8244 75 26.6654 75H91.6654C93.5063 75 94.9987 73.5076 94.9987 71.6666V35C94.9987 33.159 93.5063 31.6666 91.6654 31.6666H26.6654Z" fill="white"></path><path fill-rule="evenodd" clip-rule="evenodd" d="M95 48.3333H25V45H95V48.3333Z" fill="white"></path><ellipse cx="86.6667" cy="39.9999" rx="1.66666" ry="1.66667" fill="white"></ellipse><circle cx="81.6667" cy="39.9999" r="1.66667" fill="white"></circle><circle cx="76.6667" cy="39.9999" r="1.66667" fill="white"></circle></symbol><symbol id="smal_variablerefreshrate" viewBox="0 0 120 122" fill="none" xmlns="http://www.w3.org/2000/svg"><path d="M66.3768 46.2687C63.3313 45.0072 59.9802 44.6772 56.7472 45.3203C53.5142 45.9633 50.5445 47.5507 48.2136 49.8816C45.8827 52.2124 44.2954 55.1822 43.6523 58.4152C43.0092 61.6482 43.3393 64.9993 44.6007 68.0447C45.8622 71.0902 47.9984 73.6931 50.7392 75.5245C53.48 77.3559 56.7024 78.3333 59.9987 78.3333C60.9192 78.3333 61.6654 79.0795 61.6654 80C61.6654 80.9205 60.9192 81.6667 59.9987 81.6667C56.0431 81.6667 52.1763 80.4937 48.8873 78.2961C45.5983 76.0984 43.0349 72.9749 41.5211 69.3203C40.0074 65.6658 39.6113 61.6445 40.383 57.7649C41.1547 53.8852 43.0595 50.3216 45.8566 47.5245C48.6536 44.7275 52.2173 42.8227 56.0969 42.051C59.9765 41.2793 63.9979 41.6753 67.6524 43.1891C71.3069 44.7028 74.4305 47.2663 76.6281 50.5553C78.6998 53.6558 79.861 57.2699 79.9872 60.9878L83.8202 57.1548C84.4711 56.5039 85.5263 56.5039 86.1772 57.1548C86.8281 57.8057 86.8281 58.861 86.1772 59.5118L79.5105 66.1785C78.8597 66.8294 77.8044 66.8294 77.1535 66.1785L70.4869 59.5118C69.836 58.861 69.836 57.8057 70.4869 57.1548C71.1377 56.5039 72.193 56.5039 72.8439 57.1548L76.6505 60.9614C76.5213 57.9123 75.557 54.9522 73.8565 52.4072C72.0252 49.6664 69.4222 47.5301 66.3768 46.2687Z" fill="white"></path><path fill-rule="evenodd" clip-rule="evenodd" d="M13.332 61.6667C13.332 35.8934 34.2254 15 59.9987 15C85.772 15 106.665 35.8934 106.665 61.6667C106.665 87.44 85.772 108.333 59.9987 108.333C34.2254 108.333 13.332 87.44 13.332 61.6667ZM59.9987 18.3333C36.0664 18.3333 16.6654 37.7343 16.6654 61.6667C16.6654 85.599 36.0664 105 59.9987 105C83.931 105 103.332 85.599 103.332 61.6667C103.332 37.7343 83.931 18.3333 59.9987 18.3333Z" fill="white"></path></symbol><symbol id="smal_hdmi21" viewBox="0 0 120 120" fill="none" xmlns="http://www.w3.org/2000/svg"><path fill-rule="evenodd" clip-rule="evenodd" d="M103.332 46.6667H16.6654V68.3334H25.7421C26.9504 68.3334 28.136 68.6618 29.1721 69.2834L35.922 73.3334H84.0754L90.8253 69.2834C91.8614 68.6618 93.047 68.3334 94.2553 68.3334H103.332V46.6667ZM16.6654 43.3334C14.8244 43.3334 13.332 44.8258 13.332 46.6667V68.3334C13.332 70.1743 14.8244 71.6667 16.6654 71.6667H25.7421C26.3462 71.6667 26.939 71.8309 27.4571 72.1417L34.207 76.1917C34.725 76.5025 35.3178 76.6667 35.922 76.6667H84.0754C84.6796 76.6667 85.2723 76.5025 85.7904 76.1917L92.5403 72.1417C93.0584 71.8309 93.6512 71.6667 94.2553 71.6667H103.332C105.173 71.6667 106.665 70.1743 106.665 68.3334V46.6667C106.665 44.8258 105.173 43.3334 103.332 43.3334H16.6654Z" fill="white"></path><rect x="26.668" y="56.6666" width="66.6667" height="3.33333" rx="1.66667" fill="white"></rect></symbol></svg>